<svg xmlns="http://www.w3.org/2000/svg" xmlns:xlink="http://www.w3.org/1999/xlink" width="500" zoomAndPan="magnify" viewBox="0 0 375 374.999991" height="500" preserveAspectRatio="xMidYMid meet" version="1.0"><defs><clipPath id="33886dc159"><path d="M 37.5 52 L 337.5 52 L 337.5 313.371094 L 37.5 313.371094 Z M 37.5 52 " clip-rule="nonzero"/></clipPath></defs><g clip-path="url(#33886dc159)"><path fill="#000000" d="M 132.121094 119.046875 C 131.335938 120.417969 130.585938 121.785156 129.871094 123.167969 C 129.019531 124.789062 128.21875 126.421875 127.449219 128.058594 C 127.265625 128.457031 127.082031 128.839844 126.917969 129.242188 C 126.367188 130.492188 125.832031 131.742188 125.332031 133.011719 C 124.679688 134.664062 124.078125 136.332031 123.511719 138.015625 C 122.210938 141.96875 121.160156 145.988281 120.359375 150.078125 C 120.023438 151.792969 119.742188 153.511719 119.492188 155.246094 C 119.257812 156.933594 119.058594 158.632812 118.90625 160.335938 C 118.757812 162.019531 118.640625 163.722656 118.574219 165.421875 C 118.472656 168.140625 118.472656 170.878906 118.574219 173.597656 C 119.191406 188.777344 123.160156 203.808594 130.4375 217.117188 C 133.421875 222.558594 136.976562 227.730469 141.015625 232.566406 C 145.101562 237.453125 149.640625 241.925781 154.546875 245.929688 C 154.664062 246.011719 156.882812 247.761719 157.433594 248.179688 C 157.96875 248.597656 158.433594 248.964844 158.632812 249.097656 L 158.683594 249.148438 C 161.738281 251.433594 164.808594 253.566406 167.894531 255.554688 C 169.328125 256.472656 170.78125 257.371094 172.234375 258.238281 C 171.566406 259.140625 170.863281 260.007812 170.148438 260.875 C 168.230469 263.175781 166.125 265.328125 163.890625 267.296875 C 162.40625 266.378906 160.902344 265.429688 159.417969 264.445312 C 156.765625 262.675781 154.113281 260.824219 151.476562 258.839844 L 150.042969 257.722656 L 147.054688 255.417969 L 147.171875 255.136719 L 146.988281 255.351562 C 141.414062 250.816406 136.292969 245.777344 131.722656 240.324219 C 127.234375 234.953125 123.230469 229.128906 119.824219 222.890625 C 111.648438 207.925781 107.175781 191.078125 106.492188 174.082031 C 106.410156 171.878906 106.375 169.660156 106.410156 167.457031 C 106.441406 165.671875 106.511719 163.90625 106.625 162.136719 C 106.742188 160.351562 106.894531 158.566406 107.09375 156.800781 C 107.292969 155.015625 107.542969 153.230469 107.828125 151.445312 C 108.511719 147.15625 109.464844 142.902344 110.648438 138.714844 C 111.148438 136.929688 111.699219 135.164062 112.300781 133.410156 C 112.902344 131.644531 113.550781 129.875 114.25 128.140625 C 114.753906 126.871094 115.285156 125.621094 115.855469 124.371094 C 116.070312 123.886719 116.289062 123.402344 116.519531 122.917969 C 118.074219 119.566406 119.773438 116.3125 121.59375 113.144531 C 123.679688 109.492188 125.882812 105.96875 128.152344 102.566406 C 131.921875 96.878906 138.796875 87.605469 149.792969 78.496094 C 160.753906 69.421875 175.855469 60.496094 196.125 55.460938 C 208.875 52.039062 222.207031 51.222656 235.285156 52.773438 C 248.566406 54.359375 261.597656 58.394531 273.460938 64.652344 C 285.042969 70.757812 295.46875 78.878906 304.363281 88.4375 C 313.421875 98.179688 320.914062 109.441406 326.4375 121.566406 C 332.578125 135.0625 336.28125 149.710938 337.234375 164.472656 C 338.152344 178.835938 336.449219 193.332031 331.84375 207.027344 C 327.023438 221.339844 319.011719 234.453125 308.769531 245.460938 C 300.410156 254.4375 290.53125 262.027344 279.667969 267.746094 C 280.820312 268.816406 282.003906 269.847656 283.222656 270.851562 C 286.492188 273.550781 289.980469 275.988281 293.683594 278.15625 L 292.148438 289.214844 C 284.976562 291.085938 253.855469 296.507812 217 288.53125 C 211.375 287.316406 205.601562 285.78125 199.761719 283.878906 C 198.0625 283.328125 196.34375 282.742188 194.625 282.109375 C 194.742188 281.960938 194.875 281.828125 194.992188 281.675781 C 197.578125 278.589844 199.945312 275.320312 202.097656 271.902344 C 203.769531 272.46875 205.4375 272.984375 207.089844 273.484375 C 211.308594 274.753906 215.464844 275.804688 219.550781 276.6875 C 242.09375 281.578125 262.097656 281.144531 275.082031 279.792969 C 271.492188 276.789062 268.089844 273.46875 264.9375 269.867188 L 259.445312 263.59375 L 267.121094 260.339844 C 279.503906 255.085938 290.730469 247.097656 299.925781 237.21875 C 309.050781 227.429688 316.160156 215.816406 320.398438 203.191406 C 324.484375 191.03125 325.988281 178.085938 325.167969 165.222656 C 324.320312 151.894531 320.980469 138.699219 315.457031 126.589844 C 310.488281 115.664062 303.710938 105.503906 295.519531 96.679688 C 287.527344 88.089844 278.199219 80.796875 267.839844 75.34375 C 257.3125 69.789062 245.714844 66.203125 233.867188 64.785156 C 222.289062 63.398438 210.492188 64.117188 199.246094 67.136719 L 199.128906 67.152344 C 180.894531 71.671875 167.34375 79.664062 157.5 87.804688 C 147.671875 95.929688 141.582031 104.1875 138.230469 109.222656 C 136.058594 112.492188 133.992188 115.796875 132.089844 119.097656 Z M 130.570312 150.761719 C 131.40625 146.789062 132.503906 142.871094 133.890625 139.050781 C 135.574219 139.332031 137.246094 139.683594 138.914062 140.101562 C 139.414062 140.21875 139.929688 140.351562 140.429688 140.484375 C 155.164062 144.15625 166.144531 150.644531 174.117188 157.25 C 182.128906 163.886719 187.132812 170.644531 189.886719 174.796875 C 191.519531 177.25 193.105469 179.785156 194.625 182.4375 C 196.125 185.058594 197.527344 187.777344 198.777344 190.59375 C 203.851562 201.9375 206.105469 214.449219 205.601562 226.828125 C 205.203125 236.703125 203.050781 246.511719 199.179688 255.601562 C 198.511719 257.171875 197.792969 258.707031 197.027344 260.222656 C 196.660156 260.957031 196.277344 261.675781 195.894531 262.394531 C 195.457031 263.175781 195.007812 263.960938 194.558594 264.746094 C 193.855469 265.929688 193.121094 267.097656 192.355469 268.230469 C 190.753906 270.632812 189.035156 272.917969 187.214844 275.105469 C 186.367188 276.105469 185.496094 277.105469 184.613281 278.074219 C 183.394531 279.390625 182.109375 280.675781 180.792969 281.925781 C 179.457031 283.195312 178.074219 284.429688 176.636719 285.613281 C 176.453125 285.761719 176.269531 285.914062 176.105469 286.0625 L 175.9375 285.863281 L 176.039062 286.128906 C 176.003906 286.164062 175.621094 286.449219 173.886719 287.78125 L 172.832031 288.597656 C 172.601562 288.765625 172.382812 288.933594 172.148438 289.117188 C 156.683594 300.558594 140.382812 306.816406 125.480469 310.050781 C 98.867188 315.808594 76.308594 311.871094 71.105469 310.519531 L 69.570312 299.457031 C 72.121094 297.972656 74.542969 296.273438 76.792969 294.421875 L 77.429688 293.886719 C 70.371094 289.882812 63.945312 284.777344 58.40625 278.839844 C 50.933594 270.816406 45.09375 261.257812 41.570312 250.816406 C 38.21875 240.824219 36.984375 230.265625 37.648438 219.820312 C 38.335938 209.09375 41.039062 198.4375 45.507812 188.628906 C 49.53125 179.800781 54.96875 171.628906 61.542969 164.554688 C 68.015625 157.601562 75.59375 151.675781 84.035156 147.242188 C 87.238281 145.554688 90.574219 144.085938 93.980469 142.835938 C 95.832031 142.167969 97.699219 141.570312 99.585938 141.035156 C 98.535156 145.488281 97.71875 149.992188 97.167969 154.546875 C 95.347656 155.230469 93.5625 156 91.808594 156.847656 C 91.09375 157.199219 90.375 157.566406 89.65625 157.933594 C 82.449219 161.738281 75.960938 166.808594 70.386719 172.796875 C 64.664062 178.953125 59.941406 186.042969 56.472656 193.664062 C 52.617188 202.105469 50.296875 211.3125 49.714844 220.605469 C 49.144531 229.5625 50.179688 238.570312 53.035156 247.011719 C 55.988281 255.769531 60.925781 263.84375 67.265625 270.648438 C 73.65625 277.507812 81.464844 283.0625 90.058594 286.714844 L 97.734375 289.96875 L 92.246094 296.238281 C 90.84375 297.839844 89.375 299.359375 87.855469 300.808594 C 96.832031 301.425781 109.195312 301.242188 122.929688 298.273438 C 134.875 295.6875 147.757812 290.984375 160.167969 282.828125 C 161.722656 281.808594 163.257812 280.742188 164.792969 279.625 C 165.074219 279.40625 165.375 279.191406 165.660156 278.972656 L 165.710938 278.925781 C 165.859375 278.808594 166.175781 278.574219 166.527344 278.308594 L 168.578125 276.6875 C 168.761719 276.539062 168.960938 276.371094 169.144531 276.222656 C 170.515625 275.070312 171.847656 273.871094 173.132812 272.617188 C 174.820312 270.96875 176.421875 269.230469 177.957031 267.429688 C 179.105469 266.0625 180.191406 264.660156 181.226562 263.210938 C 181.925781 262.226562 182.609375 261.207031 183.261719 260.191406 C 183.980469 259.039062 184.679688 257.890625 185.3125 256.703125 C 185.480469 256.402344 185.648438 256.085938 185.796875 255.785156 C 186.582031 254.285156 187.316406 252.765625 187.984375 251.199219 C 191.355469 243.390625 193.207031 234.953125 193.558594 226.425781 C 193.992188 215.867188 192.070312 205.226562 187.765625 195.601562 C 186.699219 193.199219 185.464844 190.828125 184.128906 188.492188 C 182.8125 186.191406 181.359375 183.871094 179.824219 181.554688 C 177.488281 178.050781 173.25 172.3125 166.425781 166.65625 C 159.585938 160.984375 150.140625 155.414062 137.445312 152.277344 L 137.328125 152.261719 C 136.742188 152.113281 136.160156 151.960938 135.574219 151.8125 C 133.925781 151.425781 132.273438 151.09375 130.585938 150.84375 Z M 130.570312 150.761719 " fill-opacity="1" fill-rule="evenodd"/></g></svg>